<?xml version="1.0" encoding="iso-8859-1"?>
<!-- Generator: Adobe Illustrator 16.0.0, SVG Export Plug-In . SVG Version: 6.00 Build 0)  -->
<!DOCTYPE svg PUBLIC "-//W3C//DTD SVG 1.1//EN" "http://www.w3.org/Graphics/SVG/1.1/DTD/svg11.dtd">
<svg version="1.1" id="&#x5716;&#x5C64;_1" xmlns="http://www.w3.org/2000/svg" xmlns:xlink="http://www.w3.org/1999/xlink" x="0px"
	 y="0px" width="16px" height="16px" viewBox="0 0 16 16" style="enable-background:new 0 0 16 16;" xml:space="preserve">
<g>
	<path style="fill:#EB7C81;" d="M3.165,0.311C4.12,0.145,5.385,0,7.025,0c1.951,0,3.425,0.414,4.379,1.266
		c0.893,0.768,1.432,1.972,1.432,3.425c0,3.859-3.071,5.187-5.935,5.187c-0.499,0-0.955-0.021-1.35-0.103V16H3.165V0.311z
		 M5.551,7.845c0.353,0.104,0.789,0.124,1.35,0.124c2.199,0,3.527-1.142,3.527-3.175c0-1.931-1.328-2.906-3.259-2.906
		c-0.746,0-1.307,0.083-1.618,0.146V7.845z"/>
</g>
</svg>
